<svg xmlns="http://www.w3.org/2000/svg" viewBox="0 0 100 100">
  <defs>
    <linearGradient id="dusk" x1="0%" y1="0%" x2="100%" y2="100%">
      <stop offset="0%" stop-color="#863bff" />
      <stop offset="100%" stop-color="#47bfff" />
    </linearGradient>
  </defs>
  
  <g fill="url(#dusk)">
    <!-- Main C shape -->
    <path d="M 50 20 A 30 30 0 1 0 50 80 A 30 30 0 0 0 71.2 28.8 L 81.8 18.2 A 45 45 0 1 1 50 5 Z"/>
    
    <!-- Gear Spokes -->
    <!-- Top -->
    <rect x="43" y="0" width="14" height="15" rx="3" />
    <!-- Bottom -->
    <rect x="43" y="85" width="14" height="15" rx="3" />
    <!-- Left -->
    <rect x="0" y="43" width="15" height="14" rx="3" />
    
    <!-- Top-Left -->
    <g transform="rotate(-45 50 50)"><rect x="43" y="0" width="14" height="15" rx="3" /></g>
    <!-- Bottom-Left -->
    <g transform="rotate(-135 50 50)"><rect x="43" y="0" width="14" height="15" rx="3" /></g>
  </g>
</svg>